#N canvas 522 60 1083 892 10;
#X declare -lib Gem;
#X obj 175 686 hsl 128 15 0 1 0 1 empty empty R 12 8 1 12 -261689 -1
-1 8509 1;
#X obj 195 708 hsl 128 15 0 1 0 1 empty empty G 12 8 1 12 -225271 -1
-1 3429 1;
#X obj 215 729 hsl 128 15 0 1 0 1 empty empty B 12 8 1 12 -228992 -1
-1 4445 1;
#X obj -38 600 gemhead;
#X obj 152 818 rectangle;
#X obj 476 70 import Gem;
#X obj 152 776 colorRGB 0 0 0;
#X obj -4 631 hsl 128 15 2 12 0 0 empty empty amount 6 8 1 12 -233017
-1 -1 0 1;
#X obj 79 272 metro 1500;
#X obj 105 46 tgl 15 0 empty empty empty 17 7 0 10 -262144 -1 -1 1
1;
#X obj 119 421 float;
#X floatatom 82 448 5 0 0 0 - - -;
#X msg 83 339 1;
#X obj 82 421 +;
#X msg 119 391 0;
#X msg 95 362 -1;
#X obj 80 308 bng 15 250 50 0 empty empty empty 17 7 0 10 -262144 -1
-1;
#X obj 156 226 select 0 1;
#X text 113 340 comment;
#N canvas 261 392 1177 505 Color 0;
#X obj 47 41 inlet;
#X obj 22 100 select 1 9 18 27 36;
#X obj 149 100 select 45 54 63 72 81;
#X obj 23 225 unpack f f f;
#X obj 23 296 outlet;
#X obj 67 296 outlet;
#X obj 111 297 outlet;
#X msg 207 154 0.3 0 1;
#X msg 148 154 1 0.24 0;
#X msg 67 154 0.7 0.43 0.12;
#X msg 341 154 0.33 0.22 0.2;
#X msg 420 154 0.7 0.35 0.47;
#X msg 496 154 0.67 0.27 0.35;
#X msg 580 154 0.99 0.97 0.86;
#X msg 662 154 0.97 0.82 0.92;
#X msg 747 154 1 1 0;
#X msg 795 154 0 1 0;
#X msg 840 154 1 0.5 0;
#X msg 894 154 1 0 0;
#X msg 939 154 0.8 0 0;
#X msg 23 154 1 1 1;
#X msg 259 154 0.22 0.14 0.09;
#X obj 287 100 select 90 99 108 117 126 134 135;
#X obj 166 298 outlet;
#X obj 214 301 outlet;
#X connect 0 0 1 0;
#X connect 0 0 2 0;
#X connect 0 0 22 0;
#X connect 1 0 20 0;
#X connect 1 1 9 0;
#X connect 1 2 8 0;
#X connect 1 3 7 0;
#X connect 1 4 21 0;
#X connect 2 0 10 0;
#X connect 2 1 11 0;
#X connect 2 2 12 0;
#X connect 2 3 13 0;
#X connect 2 4 14 0;
#X connect 3 0 4 0;
#X connect 3 1 5 0;
#X connect 3 2 6 0;
#X connect 7 0 3 0;
#X connect 8 0 3 0;
#X connect 9 0 3 0;
#X connect 10 0 3 0;
#X connect 11 0 3 0;
#X connect 12 0 3 0;
#X connect 13 0 3 0;
#X connect 14 0 3 0;
#X connect 15 0 3 0;
#X connect 16 0 3 0;
#X connect 17 0 3 0;
#X connect 18 0 3 0;
#X connect 19 0 3 0;
#X connect 20 0 3 0;
#X connect 21 0 3 0;
#X connect 22 0 15 0;
#X connect 22 1 16 0;
#X connect 22 2 17 0;
#X connect 22 3 18 0;
#X connect 22 4 19 0;
#X connect 22 5 23 0;
#X connect 22 6 20 0;
#X connect 22 6 24 0;
#X restore 82 482 pd Color;
#X floatatom 82 537 5 0 0 0 - - -;
#X floatatom 120 537 5 0 0 0 - - -;
#X floatatom 157 538 5 0 0 0 - - -;
#X obj 289 534 readsf~ 2;
#X obj 290 566 dac~;
#X msg 289 424 start;
#X msg 336 425 stop;
#X obj 192 419 bng 15 250 50 0 empty empty empty 17 7 0 10 -262144
-1 -1;
#X obj 318 367 gemwin_control;
#X obj 311 311 vradio 15 1 0 3 empty empty empty 0 -8 0 10 -262144
-1 -1 1;
#X text 332 306 deactivate fullscreen;
#X text 331 323 fullscreen on screen 1;
#X text 331 339 fullscreen on screen 2;
#X obj -38 673 scale 12 12 12;
#X obj 128 92 select 0 1;
#X msg 177 150 1;
#X msg 138 169 0;
#X msg -26 40 \; pd dsp 1;
#X obj 16 4 bng 15 250 50 0 empty empty empty 17 7 0 10 -262144 -1
-1;
#X obj 702 305 openpanel;
#X obj 702 286 bng 15 250 50 0 empty empty empty 17 7 0 10 -262144
-1 -1;
#X msg 702 325 open \$1;
#X text 141 58 click here to open wav file;
#X msg 68 19 open /Users/jason/Desktop/PD/Miracle.wav;
#X obj 54 224 bng 15 250 50 0 empty empty empty 17 7 0 10 -262144 -1
-1;
#X connect 0 0 6 1;
#X connect 1 0 6 2;
#X connect 2 0 6 3;
#X connect 3 0 33 0;
#X connect 6 0 4 0;
#X connect 7 0 33 1;
#X connect 8 0 16 0;
#X connect 9 0 34 0;
#X connect 10 0 13 1;
#X connect 11 0 19 0;
#X connect 12 0 13 0;
#X connect 13 0 10 0;
#X connect 13 0 11 0;
#X connect 14 0 10 0;
#X connect 14 0 11 0;
#X connect 15 0 13 0;
#X connect 16 0 12 0;
#X connect 17 1 8 0;
#X connect 19 0 20 0;
#X connect 19 1 21 0;
#X connect 19 2 22 0;
#X connect 19 3 26 0;
#X connect 19 4 25 0;
#X connect 20 0 0 0;
#X connect 21 0 1 0;
#X connect 22 0 2 0;
#X connect 23 0 24 0;
#X connect 23 0 24 1;
#X connect 25 0 23 0;
#X connect 26 0 23 0;
#X connect 27 0 14 0;
#X connect 27 0 25 0;
#X connect 29 0 28 1;
#X connect 29 0 25 0;
#X connect 33 0 6 0;
#X connect 34 0 26 0;
#X connect 34 0 14 0;
#X connect 34 0 36 0;
#X connect 34 1 35 0;
#X connect 34 1 25 0;
#X connect 35 0 17 0;
#X connect 35 0 29 0;
#X connect 36 0 17 0;
#X connect 38 0 37 0;
#X connect 39 0 41 0;
#X connect 40 0 39 0;
#X connect 41 0 23 0;
#X connect 43 0 23 0;
#X connect 44 0 8 0;
