#N canvas 526 48 459 402 10;
#X floatatom 18 20 5 -100 0 0 - - -;
#X text 56 19 Lower Value;
#X text 174 19 Upper Value;
#X floatatom 141 20 5 0 100 0 - - -;
#X floatatom 262 20 5 0 0 0 - - -;
#X text 298 19 Food Rating;
#X floatatom 18 135 5 0 0 3 Percentage - -;
#X floatatom 114 132 5 0 0 3 Out_of_200 - -;
#N canvas 1065 265 544 468 scale_math 0;
#X obj 49 41 inlet;
#X obj 128 49 inlet;
#X obj 184 48 inlet;
#X obj 61 118 abs;
#X floatatom 61 140 5 0 0 0 - - -;
#X obj 61 202 +;
#X floatatom 61 224 5 0 0 0 - - -;
#X msg 61 169 bang;
#X obj 99 203 +;
#X floatatom 99 225 5 0 0 0 - - -;
#X obj 99 246 * 200;
#X floatatom 99 268 5 0 0 0 - - -;
#X obj 61 293 /;
#X floatatom 61 319 5 0 0 0 - - -;
#X obj 61 340 / 200;
#X floatatom 61 362 5 0 0 0 - - -;
#X obj 61 383 * 100;
#X obj 61 418 outlet;
#X obj 108 418 outlet;
#X connect 0 0 3 0;
#X connect 1 0 7 0;
#X connect 1 0 5 1;
#X connect 2 0 7 0;
#X connect 2 0 8 0;
#X connect 3 0 4 0;
#X connect 4 0 5 0;
#X connect 4 0 7 0;
#X connect 4 0 8 1;
#X connect 5 0 6 0;
#X connect 6 0 12 1;
#X connect 7 0 5 0;
#X connect 7 0 8 0;
#X connect 8 0 9 0;
#X connect 9 0 10 0;
#X connect 10 0 11 0;
#X connect 11 0 12 0;
#X connect 12 0 13 0;
#X connect 13 0 14 0;
#X connect 13 0 18 0;
#X connect 14 0 15 0;
#X connect 15 0 16 0;
#X connect 16 0 17 0;
#X restore 18 67 pd scale_math;
#X connect 0 0 8 0;
#X connect 3 0 8 1;
#X connect 4 0 8 2;
#X connect 8 0 6 0;
#X connect 8 1 7 0;
